# xmcd
#
# Track frame offsets:
#	150
#	14030
#	27385
#	38781
#	51033
#	64856
#	78936
#	90321
#	105861
#	119000
#	135095
#	149583
#
# Disc length: 2180 seconds
#
# Revision: 1
# Processed by: cddbd v1.5.2PL0 Copyright (c) Steve Scherf et al.
# Submitted via: audiograbber 1.83.01
#
DISCID=9808820c
DTITLE=Patrick Norman - Where I Come From - A Tribute To Hank Williams
DYEAR=2010
DGENRE=Country
TTITLE0=Hey, Good Lookin'
TTITLE1=I Can't Help It (If I'm Still In Love With You)
TTITLE2=Lovesick Blues
TTITLE3=Mind Your Own Business
TTITLE4=Kaw-Liga
TTITLE5=Cold, Cold Heart
TTITLE6=Settin' The Woods On Fire
TTITLE7=I'm So Lonesome I Could Cry
TTITLE8=Jambalaya (On The Bayou)
TTITLE9=Half As Much
TTITLE10=You Win Again
TTITLE11=I Saw The Light
EXTD=Disques GPN, PTN2-3857
EXTT0=
EXTT1=
EXTT2=
EXTT3=
EXTT4=
EXTT5=
EXTT6=
EXTT7=
EXTT8=
EXTT9=
EXTT10=
EXTT11=
PLAYORDER=
